<mxfile host="app.diagrams.net" modified="2022-04-07T14:44:39.610Z" agent="5.0 (Windows NT 10.0; Win64; x64) AppleWebKit/537.36 (KHTML, like Gecko) Chrome/100.0.4896.60 Safari/537.36 Edg/100.0.1185.29" etag="0RmPQXscpSaN_rP1tkJm" version="17.4.1" type="github">
  <diagram id="3228e29e-7158-1315-38df-8450db1d8a1d" name="Page-1">
    <mxGraphModel dx="3764" dy="2175" grid="1" gridSize="10" guides="1" tooltips="1" connect="1" arrows="1" fold="1" page="1" pageScale="1" pageWidth="1169" pageHeight="827" background="none" math="0" shadow="0">
      <root>
        <mxCell id="0" />
        <mxCell id="1" parent="0" />
        <mxCell id="e8h3THuebRnBDMsEyGPj-21540" value="" style="ellipse;fillColor=#F08705;opacity=60;strokeColor=none;html=1;fontColor=#FFFFFF;" vertex="1" parent="1">
          <mxGeometry x="230" y="-100" width="810" height="500" as="geometry" />
        </mxCell>
        <mxCell id="21531" value="" style="ellipse;fillColor=#F08705;opacity=60;strokeColor=none;html=1;fontColor=#FFFFFF;" parent="1" vertex="1">
          <mxGeometry x="220" y="200" width="730" height="560" as="geometry" />
        </mxCell>
        <mxCell id="21532" value="" style="ellipse;fillColor=#12AAB5;opacity=60;strokeColor=none;html=1;fontColor=#FFFFFF;" parent="1" vertex="1">
          <mxGeometry x="54.75" y="42.5" width="610" height="537.5" as="geometry" />
        </mxCell>
        <mxCell id="21533" value="" style="ellipse;fillColor=#e85642;opacity=60;strokeColor=none;html=1;fontColor=#FFFFFF;" parent="1" vertex="1">
          <mxGeometry x="530" y="40" width="640" height="540" as="geometry" />
        </mxCell>
        <mxCell id="21534" value="Bunny Trails Software" style="text;fontSize=24;align=center;verticalAlign=middle;html=1;fontColor=#000000;fontStyle=1" parent="1" vertex="1">
          <mxGeometry x="480" y="760" width="240" height="70" as="geometry" />
        </mxCell>
        <mxCell id="21535" value="Agritec: Cunitec" style="text;fontSize=24;align=center;verticalAlign=middle;html=1;fontColor=#000000;fontStyle=1" parent="1" vertex="1">
          <mxGeometry x="1180" y="255" width="190" height="70" as="geometry" />
        </mxCell>
        <mxCell id="21536" value="Hubbard" style="text;fontSize=24;align=center;verticalAlign=middle;html=1;fontColor=#000000;fontStyle=1" parent="1" vertex="1">
          <mxGeometry x="-90" y="265" width="190" height="70" as="geometry" />
        </mxCell>
        <mxCell id="21539" value="Subscription and Service/Product Purchase" style="text;align=center;html=1;fontColor=#FFFFFF;fontSize=16;whiteSpace=wrap;" parent="1" vertex="1">
          <mxGeometry x="553.75" y="400" width="90.5" height="40" as="geometry" />
        </mxCell>
        <mxCell id="e8h3THuebRnBDMsEyGPj-21541" value="RPC System" style="text;fontSize=24;align=center;verticalAlign=middle;html=1;fontColor=#000000;fontStyle=1" vertex="1" parent="1">
          <mxGeometry x="540" y="-170" width="190" height="70" as="geometry" />
        </mxCell>
        <mxCell id="e8h3THuebRnBDMsEyGPj-21542" value="Authorization System" style="text;fontSize=24;align=center;verticalAlign=middle;html=1;fontColor=#FFFFFF;" vertex="1" parent="1">
          <mxGeometry x="800" y="185" width="190" height="70" as="geometry" />
        </mxCell>
        <mxCell id="e8h3THuebRnBDMsEyGPj-21544" value="Product Sales" style="text;fontSize=24;align=center;verticalAlign=middle;html=1;fontColor=#FFFFFF;" vertex="1" parent="1">
          <mxGeometry x="100" y="205.75" width="190" height="70" as="geometry" />
        </mxCell>
        <mxCell id="e8h3THuebRnBDMsEyGPj-21545" value="Custom Math Expressions" style="text;fontSize=24;align=center;verticalAlign=middle;html=1;fontColor=#FFFFFF;whiteSpace=wrap;" vertex="1" parent="1">
          <mxGeometry x="970" y="247.5" width="190" height="90" as="geometry" />
        </mxCell>
        <mxCell id="e8h3THuebRnBDMsEyGPj-21546" value="Pedigree Program" style="text;fontSize=24;align=center;verticalAlign=middle;html=1;fontColor=#FFFFFF;" vertex="1" parent="1">
          <mxGeometry x="515" y="630" width="190" height="70" as="geometry" />
        </mxCell>
        <mxCell id="e8h3THuebRnBDMsEyGPj-21548" value="Management Tracker" style="text;align=center;html=1;fontColor=#FFFFFF;fontSize=16;whiteSpace=wrap;" vertex="1" parent="1">
          <mxGeometry x="750" y="317.5" width="90.5" height="55" as="geometry" />
        </mxCell>
        <mxCell id="e8h3THuebRnBDMsEyGPj-21550" value="Appointment for Expert" style="text;fontSize=22;align=center;verticalAlign=middle;html=1;fontColor=#FFFFFF;" vertex="1" parent="1">
          <mxGeometry x="120" y="265" width="190" height="70" as="geometry" />
        </mxCell>
        <mxCell id="e8h3THuebRnBDMsEyGPj-21551" value="Product" style="text;fontSize=24;align=center;verticalAlign=middle;html=1;fontColor=#FFFFFF;" vertex="1" parent="1">
          <mxGeometry x="100" y="325" width="190" height="70" as="geometry" />
        </mxCell>
        <mxCell id="e8h3THuebRnBDMsEyGPj-21556" value="Animal Care&amp;nbsp;" style="text;align=center;html=1;fontColor=#FFFFFF;fontSize=16;" vertex="1" parent="1">
          <mxGeometry x="574.25" y="275.75" width="70" height="28.5" as="geometry" />
        </mxCell>
        <mxCell id="e8h3THuebRnBDMsEyGPj-21557" value="Transactions" style="text;fontSize=24;align=center;verticalAlign=middle;html=1;fontColor=#FFFFFF;" vertex="1" parent="1">
          <mxGeometry x="515" y="570" width="200" height="70" as="geometry" />
        </mxCell>
        <mxCell id="e8h3THuebRnBDMsEyGPj-21559" value="Data-Entry" style="text;align=center;html=1;fontColor=#FFFFFF;fontSize=16;" vertex="1" parent="1">
          <mxGeometry x="664.75" y="350" width="85.25" height="45" as="geometry" />
        </mxCell>
        <mxCell id="e8h3THuebRnBDMsEyGPj-21562" value="Hosting App in Local" style="text;fontSize=24;align=center;verticalAlign=middle;html=1;fontColor=#FFFFFF;whiteSpace=wrap;" vertex="1" parent="1">
          <mxGeometry x="920" y="337.5" width="190" height="90" as="geometry" />
        </mxCell>
        <mxCell id="e8h3THuebRnBDMsEyGPj-21563" value="Mortality Tracker" style="text;fontSize=24;align=center;verticalAlign=middle;html=1;fontColor=#FFFFFF;" vertex="1" parent="1">
          <mxGeometry x="540" y="-40" width="190" height="70" as="geometry" />
        </mxCell>
        <mxCell id="e8h3THuebRnBDMsEyGPj-21564" value="Record Keeping" style="text;align=center;html=1;fontColor=#FFFFFF;fontSize=16;whiteSpace=wrap;" vertex="1" parent="1">
          <mxGeometry x="664.75" y="228.75" width="90.5" height="55" as="geometry" />
        </mxCell>
        <mxCell id="e8h3THuebRnBDMsEyGPj-21565" value="&lt;br&gt;Export Data" style="text;align=center;html=1;fontColor=#FFFFFF;fontSize=16;whiteSpace=wrap;" vertex="1" parent="1">
          <mxGeometry x="750" y="255" width="90.5" height="55" as="geometry" />
        </mxCell>
        <mxCell id="e8h3THuebRnBDMsEyGPj-21566" value="Web-based" style="text;fontSize=24;align=center;verticalAlign=middle;html=1;fontColor=#FFFFFF;" vertex="1" parent="1">
          <mxGeometry x="290" y="81.5" width="190" height="70" as="geometry" />
        </mxCell>
        <mxCell id="e8h3THuebRnBDMsEyGPj-21567" value="Learner&#39;s Page" style="text;fontSize=24;align=center;verticalAlign=middle;html=1;fontColor=#FFFFFF;" vertex="1" parent="1">
          <mxGeometry x="330" y="135.75" width="190" height="70" as="geometry" />
        </mxCell>
        <mxCell id="e8h3THuebRnBDMsEyGPj-21568" value="Graph Analytics" style="text;fontSize=24;align=center;verticalAlign=middle;html=1;fontColor=#FFFFFF;" vertex="1" parent="1">
          <mxGeometry x="730" y="65.75" width="190" height="70" as="geometry" />
        </mxCell>
        <mxCell id="e8h3THuebRnBDMsEyGPj-21569" value="Downloadable Software" style="text;fontSize=24;align=center;verticalAlign=middle;html=1;fontColor=#FFFFFF;whiteSpace=wrap;" vertex="1" parent="1">
          <mxGeometry x="690.25" y="465" width="229.75" height="85" as="geometry" />
        </mxCell>
        <mxCell id="e8h3THuebRnBDMsEyGPj-21570" value="Offline Mode" style="text;fontSize=24;align=center;verticalAlign=middle;html=1;fontColor=#FFFFFF;" vertex="1" parent="1">
          <mxGeometry x="750" y="400" width="190" height="70" as="geometry" />
        </mxCell>
        <mxCell id="e8h3THuebRnBDMsEyGPj-21571" value="Produce Tracker" style="text;fontSize=24;align=center;verticalAlign=middle;html=1;fontColor=#FFFFFF;" vertex="1" parent="1">
          <mxGeometry x="800" y="130" width="190" height="70" as="geometry" />
        </mxCell>
      </root>
    </mxGraphModel>
  </diagram>
</mxfile>
